<svg width="116" height="83" viewBox="0 0 116 83" fill="none" xmlns="http://www.w3.org/2000/svg">
<rect width="116" height="83" fill="#E5E5E5"/>
<g clip-path="url(#clip0_0_1)">
<rect width="320" height="8267" transform="translate(-204 -3917)" fill="#191919"/>
<path fill-rule="evenodd" clip-rule="evenodd" d="M3.55748 81.8622C2.43972 82.1633 1.2511 82.0819 0 81.6107L0.458191 80.3941C1.49214 80.7835 2.40093 80.8274 3.21938 80.607C4.04392 80.3849 4.83232 79.8794 5.59295 79.0788C7.13094 77.4599 8.46545 74.731 9.66591 71.1455C11.7969 64.7809 13.4167 56.0087 15.1253 46.7561L15.1256 46.7544L15.1261 46.7519C15.3381 45.6038 15.5515 44.4482 15.7674 43.289C17.7161 32.8254 19.8678 22.0737 23.0744 13.935C24.6779 9.86515 26.5636 6.3988 28.858 3.94144C31.165 1.4705 33.9071 0 37.1783 0C40.1386 0 42.7143 1.37032 44.9605 3.66331C47.1981 5.94761 49.1415 9.1778 50.8693 12.9934C54.325 20.6247 56.9935 30.7714 59.3873 40.8567C59.9635 43.284 60.5236 45.7072 61.0751 48.0927L61.0762 48.0977L61.0764 48.0984C62.8228 55.6534 64.4816 62.8296 66.2833 68.557C67.4692 72.3268 68.7015 75.4159 70.034 77.5513C70.9722 79.0547 71.902 79.9951 72.8299 80.4294L72.8431 80.3943C73.877 80.7837 74.7858 80.8276 75.6043 80.6071C76.4288 80.3851 77.2172 79.8796 77.9778 79.0789C79.5158 77.4601 80.8503 74.7311 82.0508 71.1457C84.1818 64.7811 85.8016 56.0091 87.5102 46.7565L87.5102 46.7564L87.5102 46.7563L87.5115 46.7493L87.5182 46.7129C87.7279 45.5777 87.9388 44.4353 88.1523 43.2892C90.101 32.8256 92.2527 22.0738 95.4593 13.9352C97.0628 9.86533 98.9485 6.39898 101.243 3.94162C103.55 1.47067 106.292 0.000178993 109.563 0.000178993C112.524 0.000178993 115.095 1.37085 117.333 3.66465C119.562 5.94954 121.493 9.18036 123.206 12.9963C126.632 20.6283 129.261 30.7759 131.615 40.8618C132.182 43.2898 132.733 45.7137 133.275 48.0998L133.276 48.104C134.993 55.6595 136.624 62.836 138.403 68.5638C139.574 72.3338 140.795 75.4229 142.119 77.558C143.05 79.0606 143.975 80.0003 144.901 80.4345L144.915 80.3961C145.948 80.7851 146.864 80.8299 147.696 80.6085C148.534 80.3853 149.34 79.8773 150.122 79.0747C151.703 77.4529 153.096 74.7213 154.369 71.1362C156.636 64.7476 158.428 55.9335 160.316 46.6432L160.319 46.6277C160.545 45.517 160.772 44.3996 161.001 43.2787C163.144 32.8147 165.49 22.0636 168.843 13.926C170.519 9.85656 172.466 6.39223 174.802 3.93705C177.15 1.46943 179.915 0 183.185 0C186.145 0 188.721 1.37032 190.967 3.66331C193.205 5.94761 195.148 9.1778 196.876 12.9934C200.332 20.6247 203 30.7714 205.394 40.8567C205.971 43.2859 206.531 45.7111 207.083 48.0985L207.083 48.0994C208.83 55.654 210.488 62.8298 212.29 68.557C213.476 72.3268 214.708 75.4159 216.041 77.5513C217.392 79.7161 218.725 80.7136 220.061 80.7136V82.0136C218.013 82.0136 216.341 80.4887 214.938 78.2395C213.516 75.9609 212.244 72.7442 211.05 68.9471C209.232 63.1668 207.556 55.9184 205.807 48.3502L205.805 48.3403C205.256 45.9655 204.699 43.5592 204.129 41.1569C201.734 31.0638 199.089 21.0321 195.692 13.5296C193.993 9.7783 192.125 6.70274 190.039 4.57302C187.961 2.45198 185.7 1.3 183.185 1.3C180.354 1.3 177.91 2.55679 175.744 4.83318C173.566 7.12201 171.693 10.4195 170.045 14.4212C166.747 22.4257 164.422 33.0541 162.275 43.5394C162.044 44.6659 161.816 45.791 161.588 46.9109C159.706 56.1762 157.895 65.0893 155.594 71.571C154.307 75.1964 152.838 78.1508 151.053 79.9821C150.153 80.906 149.151 81.5664 148.03 81.8647C147.414 82.0287 146.778 82.079 146.124 82.014V82.0189C144.076 82.0189 142.409 80.4929 141.014 78.2431C139.6 75.9639 138.341 72.7468 137.162 68.9495C135.366 63.1689 133.719 55.9202 131.999 48.3516L131.999 48.3514L131.999 48.351C131.459 45.9728 130.911 43.563 130.349 41.1573C127.993 31.0635 125.388 21.0314 122.02 13.5287C120.336 9.77722 118.48 6.70189 116.402 4.57248C114.333 2.45197 112.078 1.30018 109.563 1.30018C106.733 1.30018 104.315 2.55585 102.193 4.8288C100.058 7.11533 98.2452 10.4106 96.6688 14.4117C93.5156 22.4148 91.383 33.0421 89.4303 43.5272C89.2142 44.6873 89.0004 45.8458 88.7875 46.9988C87.0838 56.2276 85.4459 65.1 83.2835 71.5584C82.0699 75.1833 80.6629 78.1402 78.9203 79.9743C78.0407 80.9002 77.0541 81.563 75.9424 81.8624C75.3335 82.0264 74.7036 82.0769 74.054 82.0128V82.0136C72.0065 82.0136 70.3347 80.4887 68.9311 78.2395C67.5092 75.9609 66.2376 72.7442 65.0432 68.9471C63.2249 63.1668 61.5495 55.9184 59.8001 48.3502L59.7998 48.349C59.2503 45.9713 58.6934 43.5621 58.1225 41.1569C55.7267 31.0638 53.0824 21.0321 49.6851 13.5296C47.9863 9.7783 46.118 6.70274 44.0318 4.57302C41.9541 2.45198 39.6936 1.3 37.1783 1.3C34.3479 1.3 31.9304 2.55567 29.8082 4.82862C27.6734 7.11515 25.8603 10.4104 24.2839 14.4115C21.1307 22.4147 18.9981 33.0419 17.0454 43.527C16.8294 44.6871 16.6155 45.8457 16.4026 46.9986C14.6989 56.2274 13.061 65.0998 10.8987 71.5583C9.68499 75.1831 8.27796 78.14 6.53542 79.9742C5.65578 80.9001 4.66916 81.5628 3.55748 81.8622Z" fill="white" fill-opacity="0.8"/>
</g>
<defs>
<clipPath id="clip0_0_1">
<rect width="320" height="8267" fill="white" transform="translate(-204 -3917)"/>
</clipPath>
</defs>
</svg>
